<svg xmlns="http://www.w3.org/2000/svg" id="canvas" viewBox="165.339 391.617 208.683 90.554"><path d="M 207.22,402.00 C 207.43 401.50, 207.38 401.03, 207.10 400.36 C 206.82 399.69, 206.54 399.22, 205.81 398.66 C 205.08 398.10, 204.47 397.76, 203.43 397.57 C 202.40 397.37, 201.81 397.37, 200.62 397.70 C 199.43 398.02, 198.82 398.24, 197.49 399.20 C 196.16 400.17, 195.44 400.76, 193.98 402.52 C 192.52 404.27, 191.69 405.36, 190.20 407.98 C 188.70 410.60, 187.98 412.22, 186.50 415.60 C 185.03 418.98, 184.23 420.94, 182.83 424.87 C 181.43 428.79, 180.74 431.01, 179.50 435.23 C 178.25 439.44, 177.67 441.75, 176.61 445.94 C 175.54 450.14, 175.06 452.34, 174.17 456.18 C 173.29 460.03, 172.88 461.96, 172.19 465.19 C 171.50 468.42, 171.12 469.95, 170.72 472.32 C 170.33 474.70, 170.22 475.76, 170.21 477.06 C 170.19 478.37, 170.36 478.74, 170.66 478.85 C 170.97 478.95, 171.35 478.59, 171.71 477.57 C 172.08 476.55, 172.31 475.62, 172.49 473.75 C 172.66 471.89, 172.58 470.57, 172.59 468.26 C 172.61 465.95, 172.53 464.57, 172.55 462.21 C 172.57 459.85, 172.61 458.63, 172.71 456.47 C 172.80 454.30, 172.87 453.23, 173.04 451.40 C 173.21 449.57, 173.30 448.71, 173.54 447.30 C 173.77 445.90, 173.86 445.31, 174.22 444.38 C 174.57 443.44, 174.72 443.16, 175.32 442.63 C 175.92 442.10, 176.24 442.03, 177.21 441.74 C 178.18 441.46, 178.77 441.44, 180.15 441.21 C 181.54 440.98, 182.39 440.90, 184.14 440.59 C 185.88 440.28, 186.91 440.09, 188.88 439.66 C 190.85 439.23, 191.92 438.98, 193.99 438.45 C 196.05 437.91, 197.17 437.60, 199.19 437.00 C 201.21 436.40, 202.29 436.04, 204.10 435.47 C 205.91 434.89, 206.84 434.61, 208.25 434.12 C 209.65 433.64, 210.34 433.33, 211.10 433.05 C 211.86 432.76, 212.01 432.57, 212.05 432.70 C 212.10 432.84, 211.83 433.01, 211.34 433.72 C 210.85 434.42, 210.38 435.00, 209.60 436.23 C 208.82 437.45, 208.28 438.39, 207.43 439.86 C 206.57 441.33, 205.99 442.25, 205.32 443.57 C 204.66 444.89, 204.29 445.57, 204.11 446.45 C 203.93 447.33, 204.04 447.74, 204.44 447.98 C 204.84 448.21, 205.31 448.18, 206.11 447.61 C 206.92 447.04, 207.46 446.42, 208.46 445.13 C 209.46 443.84, 209.99 442.80, 211.10 441.15 C 212.20 439.50, 212.82 438.46, 213.98 436.88 C 215.13 435.29, 215.77 434.45, 216.87 433.21 C 217.97 431.97, 218.50 431.43, 219.46 430.66 C 220.42 429.89, 220.81 429.66, 221.67 429.36 C 222.53 429.06, 222.84 429.11, 223.76 429.17 C 224.68 429.23, 225.11 429.45, 226.25 429.67 C 227.39 429.88, 228.01 430.08, 229.45 430.25 C 230.88 430.42, 231.70 430.51, 233.42 430.52 C 235.15 430.53, 236.14 430.49, 238.09 430.29 C 240.04 430.09, 241.14 429.91, 243.19 429.51 C 245.25 429.10, 246.38 428.80, 248.37 428.28 C 250.35 427.75, 251.43 427.43, 253.14 426.87 C 254.84 426.32, 255.73 426.08, 256.91 425.52 C 258.10 424.96, 258.61 424.66, 259.05 424.10 C 259.50 423.53, 259.49 423.10, 259.15 422.68 C 258.81 422.25, 258.39 421.92, 257.35 421.96 C 256.31 422.00, 255.52 422.17, 253.94 422.88 C 252.36 423.59, 251.37 424.21, 249.46 425.51 C 247.55 426.80, 246.40 427.68, 244.39 429.36 C 242.38 431.03, 241.21 432.05, 239.41 433.87 C 237.62 435.68, 236.68 436.71, 235.42 438.44 C 234.16 440.17, 233.62 441.06, 233.11 442.52 C 232.60 443.98, 232.56 444.70, 232.88 445.74 C 233.21 446.79, 233.69 447.29, 234.75 447.73 C 235.80 448.17, 236.61 448.25, 238.15 447.96 C 239.69 447.67, 240.63 447.26, 242.46 446.28 C 244.29 445.30, 245.31 444.54, 247.28 443.08 C 249.25 441.62, 250.35 440.66, 252.31 438.97 C 254.27 437.27, 255.36 436.27, 257.10 434.59 C 258.84 432.90, 259.90 431.94, 261.00 430.52 C 262.09 429.11, 262.44 428.31, 262.59 427.52 C 262.73 426.72, 262.39 426.46, 261.71 426.55 C 261.04 426.65, 260.28 426.97, 259.22 427.98 C 258.16 428.98, 257.32 429.94, 256.41 431.57 C 255.50 433.21, 255.13 434.43, 254.68 436.14 C 254.24 437.85, 254.05 438.76, 254.19 440.13 C 254.33 441.51, 254.56 442.18, 255.37 443.02 C 256.18 443.86, 256.84 444.19, 258.25 444.32 C 259.65 444.46, 260.56 444.29, 262.39 443.68 C 264.21 443.07, 265.26 442.46, 267.35 441.28 C 269.44 440.09, 270.64 439.23, 272.85 437.74 C 275.05 436.25, 276.33 435.31, 278.39 433.82 C 280.45 432.33, 281.66 431.48, 283.16 430.30 C 284.65 429.11, 285.30 428.51, 285.88 427.89 C 286.47 427.27, 286.41 427.10, 286.07 427.19 C 285.74 427.28, 285.16 427.52, 284.21 428.33 C 283.26 429.14, 282.43 429.87, 281.32 431.24 C 280.21 432.60, 279.58 433.66, 278.67 435.15 C 277.76 436.65, 277.20 437.46, 276.78 438.73 C 276.35 439.99, 276.24 440.65, 276.53 441.49 C 276.83 442.32, 277.24 442.73, 278.25 442.89 C 279.26 443.06, 280.04 442.92, 281.59 442.32 C 283.14 441.72, 284.11 441.05, 285.99 439.89 C 287.86 438.74, 288.96 437.84, 290.97 436.53 C 292.98 435.23, 294.18 434.46, 296.04 433.34 C 297.90 432.23, 298.96 431.68, 300.28 430.96 C 301.61 430.24, 302.11 429.94, 302.64 429.74 C 303.17 429.54, 303.12 429.58, 302.94 429.95 C 302.76 430.32, 302.33 430.66, 301.73 431.58 C 301.13 432.50, 300.55 433.22, 299.94 434.56 C 299.33 435.89, 298.94 436.83, 298.66 438.25 C 298.38 439.68, 298.24 440.51, 298.53 441.70 C 298.81 442.90, 299.11 443.56, 300.08 444.22 C 301.05 444.87, 301.78 445.10, 303.36 444.97 C 304.95 444.84, 305.93 444.55, 307.99 443.56 C 310.05 442.58, 311.26 441.80, 313.65 440.03 C 316.04 438.26, 317.33 437.03, 319.94 434.69 C 322.55 432.35, 324.01 431.00, 326.70 428.33 C 329.38 425.66, 330.81 424.15, 333.38 421.34 C 335.95 418.53, 337.27 417.00, 339.53 414.28 C 341.80 411.56, 342.96 410.17, 344.70 407.75 C 346.44 405.32, 347.20 404.11, 348.25 402.14 C 349.31 400.18, 349.70 399.29, 349.97 397.93 C 350.24 396.56, 350.12 395.96, 349.60 395.32 C 349.08 394.68, 348.47 394.47, 347.39 394.72 C 346.31 394.97, 345.53 395.36, 344.20 396.59 C 342.86 397.82, 342.13 398.80, 340.71 400.87 C 339.29 402.95, 338.56 404.34, 337.09 406.97 C 335.62 409.60, 334.83 411.17, 333.35 414.02 C 331.87 416.88, 331.08 418.44, 329.70 421.23 C 328.32 424.02, 327.58 425.46, 326.44 427.98 C 325.31 430.50, 324.81 431.78, 324.01 433.85 C 323.21 435.92, 322.83 436.85, 322.44 438.34 C 322.06 439.84, 321.92 440.42, 322.07 441.32 C 322.21 442.21, 322.49 442.55, 323.18 442.80 C 323.87 443.06, 324.46 443.04, 325.50 442.59 C 326.54 442.13, 327.13 441.60, 328.39 440.51 C 329.65 439.42, 330.32 438.56, 331.81 437.13 C 333.31 435.70, 334.19 434.80, 335.87 433.34 C 337.54 431.89, 338.51 431.10, 340.18 429.85 C 341.85 428.60, 342.76 428.01, 344.21 427.10 C 345.67 426.18, 346.41 425.82, 347.44 425.27 C 348.47 424.72, 348.89 424.57, 349.38 424.34 C 349.87 424.11, 349.92 424.08, 349.87 424.11 C 349.82 424.14, 349.61 424.13, 349.13 424.50 C 348.66 424.87, 348.26 425.16, 347.50 425.96 C 346.73 426.75, 346.30 427.39, 345.32 428.48 C 344.34 429.58, 343.70 430.22, 342.58 431.42 C 341.45 432.62, 340.76 433.28, 339.69 434.47 C 338.63 435.65, 338.07 436.24, 337.26 437.34 C 336.46 438.44, 336.05 438.94, 335.67 439.97 C 335.29 441.01, 335.20 441.56, 335.38 442.51 C 335.55 443.45, 335.81 443.97, 336.56 444.70 C 337.30 445.43, 337.85 445.77, 339.08 446.16 C 340.32 446.54, 341.11 446.61, 342.71 446.63 C 344.32 446.65, 345.25 446.53, 347.10 446.26 C 348.95 446.00, 349.99 445.77, 351.97 445.31 C 353.94 444.85, 355.03 444.55, 356.98 443.96 C 358.93 443.37, 359.96 443.01, 361.71 442.36 C 363.46 441.72, 364.30 441.38, 365.73 440.73 C 367.15 440.09, 367.88 439.74, 368.83 439.13 C 369.78 438.52, 370.04 438.18, 370.48 437.68 C 370.91 437.18, 370.99 436.96, 371.02 436.63 C 371.04 436.30, 370.88 436.13, 370.59 436.03 C 370.30 435.93, 370.15 436.00, 369.55 436.11 C 368.95 436.22, 368.59 436.25, 367.59 436.60 C 366.58 436.94, 365.91 437.31, 364.52 437.85 C 363.13 438.38, 362.33 438.71, 360.63 439.27 C 358.93 439.82, 357.91 440.12, 356.03 440.63 C 354.14 441.14, 353.07 441.42, 351.19 441.82 C 349.31 442.21, 348.31 442.40, 346.61 442.62 C 344.90 442.84, 344.05 442.87, 342.68 442.92 C 341.31 442.97, 340.69 442.91, 339.76 442.85 C 338.83 442.80, 338.50 442.77, 338.04 442.64 C 337.57 442.50, 337.46 442.49, 337.44 442.19 C 337.43 441.89, 337.53 441.72, 337.97 441.15 C 338.42 440.58, 338.81 440.20, 339.65 439.35 C 340.49 438.49, 341.06 437.93, 342.18 436.88 C 343.29 435.82, 344.00 435.20, 345.22 434.05 C 346.43 432.90, 347.17 432.30, 348.24 431.13 C 349.30 429.97, 349.87 429.35, 350.54 428.24 C 351.21 427.13, 351.48 426.54, 351.59 425.57 C 351.70 424.59, 351.56 424.02, 351.09 423.36 C 350.62 422.71, 350.18 422.42, 349.24 422.28 C 348.30 422.15, 347.70 422.27, 346.38 422.69 C 345.05 423.10, 344.27 423.49, 342.63 424.37 C 341.00 425.24, 340.02 425.83, 338.20 427.05 C 336.38 428.28, 335.33 429.06, 333.51 430.49 C 331.69 431.92, 330.69 432.77, 329.10 434.20 C 327.51 435.62, 326.66 436.38, 325.55 437.61 C 324.44 438.84, 324.03 439.49, 323.56 440.34 C 323.08 441.19, 323.14 441.60, 323.19 441.85 C 323.24 442.10, 323.46 442.11, 323.82 441.58 C 324.18 441.06, 324.41 440.56, 325.00 439.24 C 325.60 437.92, 325.93 436.99, 326.81 435.01 C 327.68 433.02, 328.25 431.79, 329.38 429.31 C 330.51 426.83, 331.11 425.35, 332.46 422.59 C 333.81 419.83, 334.59 418.28, 336.13 415.52 C 337.68 412.77, 338.60 411.28, 340.17 408.81 C 341.75 406.33, 342.66 405.11, 344.01 403.14 C 345.37 401.18, 346.05 400.33, 346.95 399.00 C 347.85 397.68, 348.17 397.16, 348.52 396.52 C 348.87 395.87, 348.84 395.64, 348.71 395.77 C 348.57 395.90, 348.43 396.17, 347.85 397.15 C 347.26 398.14, 346.89 398.93, 345.77 400.70 C 344.66 402.48, 343.93 403.65, 342.27 406.03 C 340.62 408.41, 339.64 409.90, 337.49 412.62 C 335.34 415.34, 334.03 416.87, 331.51 419.63 C 328.98 422.39, 327.55 423.87, 324.85 426.43 C 322.15 428.98, 320.67 430.29, 318.01 432.41 C 315.34 434.52, 313.87 435.45, 311.52 437.02 C 309.18 438.59, 308.03 439.25, 306.27 440.26 C 304.50 441.26, 303.76 441.59, 302.72 442.05 C 301.67 442.50, 301.38 442.60, 301.05 442.51 C 300.71 442.43, 300.81 442.24, 301.03 441.62 C 301.25 441.00, 301.60 440.49, 302.15 439.41 C 302.70 438.34, 303.23 437.57, 303.78 436.23 C 304.34 434.88, 304.74 434.00, 304.91 432.68 C 305.08 431.36, 305.08 430.57, 304.65 429.62 C 304.22 428.67, 303.83 428.22, 302.74 427.93 C 301.65 427.64, 300.87 427.71, 299.19 428.17 C 297.51 428.63, 296.39 429.20, 294.34 430.21 C 292.29 431.22, 291.05 431.99, 288.93 433.21 C 286.81 434.43, 285.58 435.14, 283.74 436.32 C 281.91 437.49, 280.95 438.14, 279.77 439.08 C 278.58 440.02, 278.19 440.52, 277.81 441.01 C 277.44 441.49, 277.55 441.66, 277.87 441.52 C 278.19 441.38, 278.59 441.10, 279.40 440.30 C 280.21 439.50, 280.83 438.79, 281.93 437.51 C 283.03 436.22, 283.90 435.36, 284.89 433.88 C 285.89 432.39, 286.48 431.42, 286.92 430.08 C 287.36 428.74, 287.45 427.96, 287.10 427.18 C 286.75 426.39, 286.32 426.06, 285.18 426.13 C 284.03 426.21, 283.14 426.61, 281.37 427.55 C 279.60 428.49, 278.44 429.43, 276.32 430.84 C 274.20 432.24, 272.94 433.18, 270.76 434.60 C 268.58 436.01, 267.37 436.78, 265.41 437.92 C 263.46 439.07, 262.48 439.59, 261.01 440.33 C 259.54 441.07, 258.93 441.35, 258.08 441.63 C 257.23 441.90, 257.00 441.96, 256.75 441.69 C 256.50 441.43, 256.54 441.14, 256.82 440.31 C 257.11 439.48, 257.44 438.82, 258.18 437.53 C 258.93 436.24, 259.72 435.38, 260.55 433.87 C 261.39 432.36, 261.92 431.32, 262.36 429.98 C 262.79 428.64, 262.90 427.88, 262.72 427.18 C 262.54 426.47, 262.27 426.23, 261.46 426.45 C 260.65 426.66, 260.02 427.14, 258.66 428.25 C 257.30 429.36, 256.41 430.42, 254.67 432.00 C 252.92 433.59, 251.87 434.58, 249.95 436.18 C 248.02 437.78, 246.92 438.66, 245.04 440.02 C 243.16 441.37, 242.14 441.98, 240.56 442.94 C 238.98 443.90, 238.22 444.26, 237.14 444.81 C 236.06 445.36, 235.67 445.58, 235.16 445.71 C 234.65 445.83, 234.53 445.84, 234.59 445.43 C 234.65 445.02, 234.80 444.64, 235.47 443.65 C 236.13 442.65, 236.64 441.89, 237.93 440.45 C 239.21 439.01, 240.12 438.06, 241.89 436.44 C 243.66 434.81, 244.82 433.84, 246.78 432.33 C 248.74 430.81, 249.87 430.02, 251.68 428.86 C 253.49 427.69, 254.48 427.32, 255.83 426.49 C 257.19 425.66, 257.78 425.35, 258.45 424.70 C 259.13 424.05, 259.22 423.69, 259.20 423.24 C 259.18 422.78, 259.01 422.53, 258.36 422.42 C 257.71 422.30, 257.19 422.41, 255.96 422.67 C 254.72 422.92, 253.88 423.24, 252.20 423.69 C 250.51 424.14, 249.45 424.45, 247.51 424.93 C 245.58 425.40, 244.49 425.68, 242.53 426.06 C 240.57 426.43, 239.54 426.59, 237.72 426.79 C 235.89 426.99, 235.00 427.02, 233.41 427.04 C 231.82 427.07, 231.12 426.99, 229.77 426.90 C 228.42 426.80, 227.87 426.65, 226.66 426.56 C 225.45 426.46, 224.91 426.35, 223.74 426.43 C 222.58 426.50, 222.03 426.54, 220.85 426.93 C 219.67 427.32, 219.09 427.56, 217.83 428.37 C 216.58 429.17, 215.91 429.71, 214.57 430.96 C 213.23 432.20, 212.51 433.03, 211.13 434.59 C 209.76 436.15, 208.94 437.09, 207.70 438.74 C 206.46 440.40, 205.72 441.37, 204.93 442.87 C 204.14 444.37, 203.88 445.21, 203.76 446.25 C 203.63 447.29, 203.84 447.74, 204.30 448.07 C 204.76 448.39, 205.24 448.36, 206.06 447.86 C 206.88 447.37, 207.42 446.78, 208.40 445.60 C 209.38 444.43, 210.01 443.51, 210.96 442.00 C 211.91 440.49, 212.53 439.55, 213.15 438.03 C 213.76 436.52, 214.02 435.69, 214.05 434.43 C 214.08 433.18, 213.91 432.53, 213.28 431.77 C 212.66 431.02, 212.09 430.79, 210.91 430.66 C 209.74 430.53, 208.97 430.79, 207.42 431.12 C 205.86 431.45, 204.98 431.80, 203.15 432.32 C 201.32 432.84, 200.26 433.18, 198.26 433.74 C 196.26 434.29, 195.17 434.60, 193.15 435.09 C 191.13 435.58, 190.08 435.79, 188.14 436.19 C 186.21 436.58, 185.22 436.72, 183.48 437.06 C 181.74 437.39, 180.90 437.48, 179.43 437.87 C 177.95 438.26, 177.27 438.43, 176.10 439.01 C 174.93 439.60, 174.42 439.93, 173.56 440.79 C 172.71 441.66, 172.39 442.15, 171.82 443.33 C 171.25 444.52, 171.08 445.18, 170.71 446.73 C 170.35 448.27, 170.23 449.15, 169.98 451.05 C 169.72 452.96, 169.64 454.04, 169.43 456.24 C 169.22 458.44, 169.13 459.67, 168.94 462.05 C 168.75 464.43, 168.57 465.82, 168.47 468.16 C 168.37 470.49, 168.26 471.83, 168.42 473.74 C 168.59 475.65, 168.80 476.61, 169.28 477.70 C 169.76 478.78, 170.20 479.20, 170.81 479.17 C 171.41 479.13, 171.77 478.79, 172.32 477.53 C 172.87 476.27, 173.08 475.22, 173.57 472.86 C 174.06 470.49, 174.20 468.93, 174.77 465.70 C 175.35 462.46, 175.64 460.52, 176.43 456.68 C 177.22 452.83, 177.69 450.64, 178.73 446.48 C 179.78 442.32, 180.36 440.02, 181.64 435.87 C 182.91 431.72, 183.62 429.53, 185.11 425.72 C 186.59 421.91, 187.44 419.99, 189.07 416.81 C 190.69 413.63, 191.68 412.21, 193.22 409.81 C 194.77 407.41, 195.52 406.41, 196.79 404.80 C 198.06 403.20, 198.63 402.66, 199.58 401.80 C 200.52 400.93, 200.91 400.74, 201.53 400.49 C 202.14 400.23, 202.26 400.32, 202.66 400.50 C 203.07 400.69, 203.15 401.04, 203.55 401.41 C 203.95 401.78, 204.16 402.07, 204.66 402.36 C 205.17 402.64, 205.55 402.91, 206.06 402.84 C 206.57 402.76, 207.02 402.50, 207.22 402.00" style="stroke: black; fill: black;"/></svg>